<mxfile host="app.diagrams.net" modified="2021-04-18T06:57:02.874Z" agent="5.0 (Windows NT 10.0; WOW64) AppleWebKit/537.36 (KHTML, like Gecko) Chrome/74.0.3713.0 Safari/537.36" etag="sTw5rO-qZXuShEtZqnUb" version="14.6.1" type="github">
  <diagram id="BtUgBz7KLYoMWUIILyiP" name="第 1 页">
    <mxGraphModel dx="1038" dy="499" grid="1" gridSize="10" guides="1" tooltips="1" connect="1" arrows="1" fold="1" page="1" pageScale="1" pageWidth="827" pageHeight="1169" math="0" shadow="0">
      <root>
        <mxCell id="0" />
        <mxCell id="1" parent="0" />
        <mxCell id="7Ek32DFkB0Gv7xTkyyr0-2" style="edgeStyle=orthogonalEdgeStyle;rounded=0;orthogonalLoop=1;jettySize=auto;html=1;" parent="1" source="7Ek32DFkB0Gv7xTkyyr0-1" target="7Ek32DFkB0Gv7xTkyyr0-3" edge="1">
          <mxGeometry relative="1" as="geometry">
            <mxPoint x="385" y="120" as="targetPoint" />
          </mxGeometry>
        </mxCell>
        <mxCell id="7Ek32DFkB0Gv7xTkyyr0-1" value="&lt;b&gt;开始&lt;/b&gt;" style="ellipse;whiteSpace=wrap;html=1;" parent="1" vertex="1">
          <mxGeometry x="350" y="10" width="70" height="60" as="geometry" />
        </mxCell>
        <mxCell id="7Ek32DFkB0Gv7xTkyyr0-4" style="edgeStyle=orthogonalEdgeStyle;rounded=0;orthogonalLoop=1;jettySize=auto;html=1;" parent="1" source="7Ek32DFkB0Gv7xTkyyr0-3" edge="1">
          <mxGeometry relative="1" as="geometry">
            <mxPoint x="385" y="210" as="targetPoint" />
          </mxGeometry>
        </mxCell>
        <mxCell id="7Ek32DFkB0Gv7xTkyyr0-3" value="&lt;b&gt;获取oldCap，oldThr&lt;/b&gt;" style="rounded=1;whiteSpace=wrap;html=1;" parent="1" vertex="1">
          <mxGeometry x="320" y="100" width="130" height="60" as="geometry" />
        </mxCell>
        <mxCell id="7Ek32DFkB0Gv7xTkyyr0-6" style="edgeStyle=orthogonalEdgeStyle;rounded=0;orthogonalLoop=1;jettySize=auto;html=1;" parent="1" source="7Ek32DFkB0Gv7xTkyyr0-5" edge="1">
          <mxGeometry relative="1" as="geometry">
            <mxPoint x="100" y="330" as="targetPoint" />
          </mxGeometry>
        </mxCell>
        <mxCell id="7Ek32DFkB0Gv7xTkyyr0-12" style="edgeStyle=orthogonalEdgeStyle;rounded=0;orthogonalLoop=1;jettySize=auto;html=1;exitX=0.5;exitY=1;exitDx=0;exitDy=0;" parent="1" source="7Ek32DFkB0Gv7xTkyyr0-5" edge="1">
          <mxGeometry relative="1" as="geometry">
            <mxPoint x="385" y="410" as="targetPoint" />
          </mxGeometry>
        </mxCell>
        <mxCell id="7Ek32DFkB0Gv7xTkyyr0-26" style="edgeStyle=orthogonalEdgeStyle;rounded=0;orthogonalLoop=1;jettySize=auto;html=1;" parent="1" source="7Ek32DFkB0Gv7xTkyyr0-5" edge="1">
          <mxGeometry relative="1" as="geometry">
            <mxPoint x="840" y="360" as="targetPoint" />
          </mxGeometry>
        </mxCell>
        <mxCell id="7Ek32DFkB0Gv7xTkyyr0-5" value="&lt;b&gt;oldCap&lt;/b&gt;" style="rhombus;whiteSpace=wrap;html=1;" parent="1" vertex="1">
          <mxGeometry x="320" y="210" width="130" height="80" as="geometry" />
        </mxCell>
        <mxCell id="7Ek32DFkB0Gv7xTkyyr0-7" value="&lt;b&gt;&lt;span&gt;oldCap&amp;gt;&lt;/span&gt;MAXIMUM_CAPACITY&lt;/b&gt;" style="text;html=1;strokeColor=none;fillColor=none;align=center;verticalAlign=middle;whiteSpace=wrap;rounded=0;" parent="1" vertex="1">
          <mxGeometry x="100" y="220" width="200" height="30" as="geometry" />
        </mxCell>
        <mxCell id="7Ek32DFkB0Gv7xTkyyr0-16" style="edgeStyle=orthogonalEdgeStyle;rounded=0;orthogonalLoop=1;jettySize=auto;html=1;" parent="1" source="7Ek32DFkB0Gv7xTkyyr0-8" edge="1">
          <mxGeometry relative="1" as="geometry">
            <mxPoint x="105" y="460" as="targetPoint" />
          </mxGeometry>
        </mxCell>
        <mxCell id="7Ek32DFkB0Gv7xTkyyr0-8" value="&lt;b&gt;newCap =oldCap(不扩容)&lt;br&gt;threshold =Integer.MAX&lt;/b&gt;" style="rounded=1;whiteSpace=wrap;html=1;fillColor=#d80073;strokeColor=#A50040;fontColor=#ffffff;" parent="1" vertex="1">
          <mxGeometry y="330" width="210" height="80" as="geometry" />
        </mxCell>
        <mxCell id="7Ek32DFkB0Gv7xTkyyr0-10" value="&lt;b&gt;&lt;span&gt;oldCap&amp;lt;&lt;/span&gt;MAXIMUM_CAPACITY&lt;/b&gt;" style="text;html=1;strokeColor=none;fillColor=none;align=center;verticalAlign=middle;whiteSpace=wrap;rounded=0;" parent="1" vertex="1">
          <mxGeometry x="470" y="220" width="200" height="30" as="geometry" />
        </mxCell>
        <mxCell id="7Ek32DFkB0Gv7xTkyyr0-27" style="edgeStyle=orthogonalEdgeStyle;rounded=0;orthogonalLoop=1;jettySize=auto;html=1;entryX=0.5;entryY=0;entryDx=0;entryDy=0;" parent="1" source="7Ek32DFkB0Gv7xTkyyr0-11" target="7Ek32DFkB0Gv7xTkyyr0-24" edge="1">
          <mxGeometry relative="1" as="geometry" />
        </mxCell>
        <mxCell id="7Ek32DFkB0Gv7xTkyyr0-11" value="&lt;b&gt;newCap=oldCap&amp;lt;&amp;lt;1(2倍扩容)&lt;/b&gt;" style="rounded=1;whiteSpace=wrap;html=1;fillColor=#d80073;strokeColor=#A50040;fontColor=#ffffff;" parent="1" vertex="1">
          <mxGeometry x="760" y="360" width="170" height="70" as="geometry" />
        </mxCell>
        <mxCell id="7Ek32DFkB0Gv7xTkyyr0-13" value="&lt;b&gt;&lt;span&gt;oldCap=0&lt;/span&gt;&lt;/b&gt;" style="text;html=1;strokeColor=none;fillColor=none;align=center;verticalAlign=middle;whiteSpace=wrap;rounded=0;" parent="1" vertex="1">
          <mxGeometry x="320" y="330" width="200" height="30" as="geometry" />
        </mxCell>
        <mxCell id="7Ek32DFkB0Gv7xTkyyr0-15" style="edgeStyle=orthogonalEdgeStyle;rounded=0;orthogonalLoop=1;jettySize=auto;html=1;" parent="1" source="7Ek32DFkB0Gv7xTkyyr0-14" edge="1">
          <mxGeometry relative="1" as="geometry">
            <mxPoint x="385" y="530" as="targetPoint" />
          </mxGeometry>
        </mxCell>
        <mxCell id="7Ek32DFkB0Gv7xTkyyr0-20" style="edgeStyle=orthogonalEdgeStyle;rounded=0;orthogonalLoop=1;jettySize=auto;html=1;" parent="1" source="7Ek32DFkB0Gv7xTkyyr0-14" edge="1">
          <mxGeometry relative="1" as="geometry">
            <mxPoint x="210" y="550" as="targetPoint" />
          </mxGeometry>
        </mxCell>
        <mxCell id="7Ek32DFkB0Gv7xTkyyr0-14" value="&lt;b&gt;&lt;font style=&quot;font-size: 18px&quot;&gt;oldThr&amp;gt;0?&lt;/font&gt;&lt;/b&gt;" style="rhombus;whiteSpace=wrap;html=1;" parent="1" vertex="1">
          <mxGeometry x="310" y="410" width="150" height="80" as="geometry" />
        </mxCell>
        <mxCell id="7Ek32DFkB0Gv7xTkyyr0-17" value="&lt;b&gt;&lt;font style=&quot;font-size: 14px&quot;&gt;结束&lt;/font&gt;&lt;/b&gt;" style="ellipse;whiteSpace=wrap;html=1;aspect=fixed;fillColor=#e51400;strokeColor=#B20000;fontColor=#ffffff;" parent="1" vertex="1">
          <mxGeometry x="65" y="460" width="80" height="80" as="geometry" />
        </mxCell>
        <mxCell id="7Ek32DFkB0Gv7xTkyyr0-18" value="&lt;b&gt;&lt;font style=&quot;font-size: 12px&quot;&gt;oldThr=0&lt;/font&gt;&lt;/b&gt;" style="text;html=1;strokeColor=none;fillColor=none;align=center;verticalAlign=middle;whiteSpace=wrap;rounded=0;" parent="1" vertex="1">
          <mxGeometry x="314" y="485" width="200" height="30" as="geometry" />
        </mxCell>
        <mxCell id="7Ek32DFkB0Gv7xTkyyr0-43" style="edgeStyle=orthogonalEdgeStyle;rounded=0;orthogonalLoop=1;jettySize=auto;html=1;entryX=0.131;entryY=0.003;entryDx=0;entryDy=0;entryPerimeter=0;" parent="1" source="7Ek32DFkB0Gv7xTkyyr0-19" target="7Ek32DFkB0Gv7xTkyyr0-42" edge="1">
          <mxGeometry relative="1" as="geometry">
            <mxPoint x="310" y="1120" as="targetPoint" />
            <Array as="points">
              <mxPoint x="205" y="700" />
              <mxPoint x="311" y="700" />
            </Array>
          </mxGeometry>
        </mxCell>
        <mxCell id="7Ek32DFkB0Gv7xTkyyr0-19" value="&lt;font style=&quot;font-size: 14px&quot;&gt;&lt;b&gt;newCap = oldThr&lt;/b&gt;&lt;/font&gt;" style="rounded=1;whiteSpace=wrap;html=1;fillColor=#60a917;strokeColor=#2D7600;fontColor=#ffffff;" parent="1" vertex="1">
          <mxGeometry x="145" y="550" width="120" height="60" as="geometry" />
        </mxCell>
        <mxCell id="7Ek32DFkB0Gv7xTkyyr0-21" value="&lt;b&gt;oldThr&amp;gt;0&lt;/b&gt;" style="text;html=1;strokeColor=none;fillColor=none;align=center;verticalAlign=middle;whiteSpace=wrap;rounded=0;" parent="1" vertex="1">
          <mxGeometry x="170" y="420" width="200" height="30" as="geometry" />
        </mxCell>
        <mxCell id="7Ek32DFkB0Gv7xTkyyr0-44" style="edgeStyle=orthogonalEdgeStyle;rounded=0;orthogonalLoop=1;jettySize=auto;html=1;entryX=0.403;entryY=0.013;entryDx=0;entryDy=0;entryPerimeter=0;" parent="1" source="7Ek32DFkB0Gv7xTkyyr0-22" target="7Ek32DFkB0Gv7xTkyyr0-42" edge="1">
          <mxGeometry relative="1" as="geometry">
            <mxPoint x="385" y="1121" as="targetPoint" />
          </mxGeometry>
        </mxCell>
        <mxCell id="7Ek32DFkB0Gv7xTkyyr0-22" value="newCap=16;&lt;br&gt;newThr=12" style="rounded=1;whiteSpace=wrap;html=1;fillColor=#d80073;strokeColor=#A50040;fontColor=#ffffff;" parent="1" vertex="1">
          <mxGeometry x="310" y="530" width="150" height="70" as="geometry" />
        </mxCell>
        <mxCell id="7Ek32DFkB0Gv7xTkyyr0-28" style="edgeStyle=orthogonalEdgeStyle;rounded=0;orthogonalLoop=1;jettySize=auto;html=1;" parent="1" source="7Ek32DFkB0Gv7xTkyyr0-24" edge="1">
          <mxGeometry relative="1" as="geometry">
            <mxPoint x="845" y="710" as="targetPoint" />
          </mxGeometry>
        </mxCell>
        <mxCell id="7Ek32DFkB0Gv7xTkyyr0-30" style="edgeStyle=orthogonalEdgeStyle;rounded=0;orthogonalLoop=1;jettySize=auto;html=1;" parent="1" source="7Ek32DFkB0Gv7xTkyyr0-24" target="7Ek32DFkB0Gv7xTkyyr0-29" edge="1">
          <mxGeometry relative="1" as="geometry" />
        </mxCell>
        <mxCell id="7Ek32DFkB0Gv7xTkyyr0-24" value="&lt;b&gt;newCap&amp;lt;MAXIMUM_CAPACITY &amp;amp;&amp;amp;&lt;br&gt;oldCap&amp;gt;=16&lt;br&gt;&lt;/b&gt;" style="rhombus;whiteSpace=wrap;html=1;" parent="1" vertex="1">
          <mxGeometry x="710" y="530" width="270" height="100" as="geometry" />
        </mxCell>
        <mxCell id="7Ek32DFkB0Gv7xTkyyr0-45" style="edgeStyle=orthogonalEdgeStyle;rounded=0;orthogonalLoop=1;jettySize=auto;html=1;entryX=0.554;entryY=-0.008;entryDx=0;entryDy=0;entryPerimeter=0;" parent="1" source="7Ek32DFkB0Gv7xTkyyr0-29" target="7Ek32DFkB0Gv7xTkyyr0-42" edge="1">
          <mxGeometry relative="1" as="geometry">
            <mxPoint x="430" y="1120" as="targetPoint" />
          </mxGeometry>
        </mxCell>
        <mxCell id="7Ek32DFkB0Gv7xTkyyr0-29" value="&lt;b&gt;newThr=oldThr&amp;lt;&amp;lt;1&lt;/b&gt;" style="rounded=1;whiteSpace=wrap;html=1;fillColor=#60a917;strokeColor=#2D7600;fontColor=#ffffff;" parent="1" vertex="1">
          <mxGeometry x="490" y="660" width="210" height="60" as="geometry" />
        </mxCell>
        <mxCell id="7Ek32DFkB0Gv7xTkyyr0-31" value="&lt;b&gt;&lt;font style=&quot;font-size: 12px&quot;&gt;true&lt;/font&gt;&lt;/b&gt;" style="text;html=1;strokeColor=none;fillColor=none;align=center;verticalAlign=middle;whiteSpace=wrap;rounded=0;" parent="1" vertex="1">
          <mxGeometry x="560" y="555" width="200" height="30" as="geometry" />
        </mxCell>
        <mxCell id="7Ek32DFkB0Gv7xTkyyr0-32" value="&lt;b&gt;&lt;font style=&quot;font-size: 12px&quot;&gt;false&lt;/font&gt;&lt;/b&gt;" style="text;html=1;strokeColor=none;fillColor=none;align=center;verticalAlign=middle;whiteSpace=wrap;rounded=0;" parent="1" vertex="1">
          <mxGeometry x="770" y="650" width="200" height="30" as="geometry" />
        </mxCell>
        <mxCell id="7Ek32DFkB0Gv7xTkyyr0-35" style="edgeStyle=orthogonalEdgeStyle;rounded=0;orthogonalLoop=1;jettySize=auto;html=1;" parent="1" source="7Ek32DFkB0Gv7xTkyyr0-34" edge="1">
          <mxGeometry relative="1" as="geometry">
            <mxPoint x="850" y="810" as="targetPoint" />
          </mxGeometry>
        </mxCell>
        <mxCell id="7Ek32DFkB0Gv7xTkyyr0-34" value="&lt;font style=&quot;font-size: 14px&quot;&gt;&lt;b&gt;ft=newCap * loadFactor&lt;/b&gt;&lt;/font&gt;" style="rounded=1;whiteSpace=wrap;html=1;" parent="1" vertex="1">
          <mxGeometry x="770" y="710" width="160" height="50" as="geometry" />
        </mxCell>
        <mxCell id="7Ek32DFkB0Gv7xTkyyr0-37" style="edgeStyle=orthogonalEdgeStyle;rounded=0;orthogonalLoop=1;jettySize=auto;html=1;" parent="1" source="7Ek32DFkB0Gv7xTkyyr0-36" edge="1">
          <mxGeometry relative="1" as="geometry">
            <mxPoint x="850" y="920" as="targetPoint" />
          </mxGeometry>
        </mxCell>
        <mxCell id="7Ek32DFkB0Gv7xTkyyr0-39" style="edgeStyle=orthogonalEdgeStyle;rounded=0;orthogonalLoop=1;jettySize=auto;html=1;entryX=0.5;entryY=0;entryDx=0;entryDy=0;" parent="1" source="7Ek32DFkB0Gv7xTkyyr0-36" target="7Ek32DFkB0Gv7xTkyyr0-40" edge="1">
          <mxGeometry relative="1" as="geometry">
            <mxPoint x="680" y="900" as="targetPoint" />
          </mxGeometry>
        </mxCell>
        <mxCell id="7Ek32DFkB0Gv7xTkyyr0-36" value="&lt;b&gt;ft&amp;lt;MAXMUN_CAPACITY&lt;/b&gt;" style="rhombus;whiteSpace=wrap;html=1;" parent="1" vertex="1">
          <mxGeometry x="760" y="810" width="180" height="70" as="geometry" />
        </mxCell>
        <mxCell id="7Ek32DFkB0Gv7xTkyyr0-48" style="edgeStyle=orthogonalEdgeStyle;rounded=0;orthogonalLoop=1;jettySize=auto;html=1;entryX=1;entryY=0.5;entryDx=0;entryDy=0;" parent="1" source="7Ek32DFkB0Gv7xTkyyr0-38" target="7Ek32DFkB0Gv7xTkyyr0-42" edge="1">
          <mxGeometry relative="1" as="geometry">
            <Array as="points">
              <mxPoint x="850" y="1205" />
            </Array>
          </mxGeometry>
        </mxCell>
        <mxCell id="7Ek32DFkB0Gv7xTkyyr0-38" value="&lt;b&gt;&lt;font style=&quot;font-size: 14px&quot;&gt;newThr=ft&lt;/font&gt;&lt;/b&gt;" style="rounded=1;whiteSpace=wrap;html=1;fillColor=#60a917;strokeColor=#2D7600;fontColor=#ffffff;" parent="1" vertex="1">
          <mxGeometry x="790" y="920" width="120" height="60" as="geometry" />
        </mxCell>
        <mxCell id="7Ek32DFkB0Gv7xTkyyr0-47" style="edgeStyle=orthogonalEdgeStyle;rounded=0;orthogonalLoop=1;jettySize=auto;html=1;entryX=0.664;entryY=0;entryDx=0;entryDy=0;entryPerimeter=0;" parent="1" source="7Ek32DFkB0Gv7xTkyyr0-40" target="7Ek32DFkB0Gv7xTkyyr0-42" edge="1">
          <mxGeometry relative="1" as="geometry" />
        </mxCell>
        <mxCell id="7Ek32DFkB0Gv7xTkyyr0-40" value="&lt;b&gt;newThr=Integer.MAX&lt;/b&gt;" style="rounded=1;whiteSpace=wrap;html=1;fillColor=#60a917;strokeColor=#2D7600;fontColor=#ffffff;" parent="1" vertex="1">
          <mxGeometry x="620" y="920" width="120" height="60" as="geometry" />
        </mxCell>
        <mxCell id="7Ek32DFkB0Gv7xTkyyr0-49" style="edgeStyle=orthogonalEdgeStyle;rounded=0;orthogonalLoop=1;jettySize=auto;html=1;" parent="1" source="7Ek32DFkB0Gv7xTkyyr0-42" edge="1">
          <mxGeometry relative="1" as="geometry">
            <mxPoint x="407" y="1320" as="targetPoint" />
          </mxGeometry>
        </mxCell>
        <mxCell id="7Ek32DFkB0Gv7xTkyyr0-42" value="&lt;font style=&quot;font-size: 14px&quot;&gt;&lt;b&gt;将数据复制到扩容后的table中&lt;/b&gt;&lt;/font&gt;" style="rounded=1;whiteSpace=wrap;html=1;fillColor=#a0522d;strokeColor=#6D1F00;fontColor=#ffffff;" parent="1" vertex="1">
          <mxGeometry x="274" y="1130" width="266" height="150" as="geometry" />
        </mxCell>
        <mxCell id="7Ek32DFkB0Gv7xTkyyr0-50" value="&lt;b&gt;&lt;font style=&quot;font-size: 14px&quot;&gt;结束&lt;/font&gt;&lt;/b&gt;" style="ellipse;whiteSpace=wrap;html=1;aspect=fixed;fillColor=#e51400;strokeColor=#B20000;fontColor=#ffffff;" parent="1" vertex="1">
          <mxGeometry x="367" y="1320" width="80" height="80" as="geometry" />
        </mxCell>
      </root>
    </mxGraphModel>
  </diagram>
</mxfile>
